<?xml version="1.0" encoding="UTF-8" standalone="no"?>
<!-- Created with Inkscape (http://www.inkscape.org/) -->

<svg
   width="31.999998"
   height="31.999998"
   viewBox="0 0 8.4666661 8.4666661"
   version="1.1"
   id="svg1"
   xml:space="preserve"
   xmlns="http://www.w3.org/2000/svg"
   xmlns:svg="http://www.w3.org/2000/svg"><defs
     id="defs1" /><path
     style="fill:#000000;fill-opacity:1;stroke-width:0.264583"
     d="M 1.0583333,1.0583333 V 3.96875 L 1.7197917,3.3734375 2.1166667,4.4317708 2.6458333,4.2333333 2.2489583,3.175 H 3.175 Z"
     id="path26" /><path
     id="path1"
     style="fill:#000000;stroke-width:0.0160483"
     d="M 5.2762463,4.0094636 V 4.3208303 A 1.5359873,1.5359722 0 0 0 4.0474356,5.8219114 1.5359873,1.5359722 0 0 0 4.7411037,7.1051278 L 4.875691,6.6713036 A 1.1059109,1.1059001 0 0 1 4.4775175,5.8219114 1.1059109,1.1059001 0 0 1 5.2762463,4.7656714 V 5.0736092 L 5.7370299,4.8075808 6.1978133,4.5415522 5.7370299,4.2754921 Z M 6.3525932,4.4928487 6.2193714,4.9222913 A 1.1059109,1.1059001 0 0 1 6.6893308,5.8219114 1.1059109,1.1059001 0 0 1 5.8291676,6.8960581 V 6.5591648 L 5.3683838,6.825225 4.9075993,7.0912534 5.3683838,7.3572818 5.8291676,7.623342 V 7.3377244 A 1.5359873,1.5359722 0 0 0 7.1194129,5.8219114 1.5359873,1.5359722 0 0 0 6.3525932,4.4928487 Z" /></svg>
