<?xml version="1.0" encoding="UTF-8" standalone="no"?>
<!-- Created with Inkscape (http://www.inkscape.org/) -->

<svg
   width="31.999998"
   height="31.999998"
   viewBox="0 0 8.4666661 8.4666661"
   version="1.1"
   id="svg1"
   xmlns="http://www.w3.org/2000/svg"
   xmlns:svg="http://www.w3.org/2000/svg">
  <defs
     id="defs1" />
  <path
     style="fill:#000000;fill-opacity:1;stroke-width:0.264583"
     d="M 1.0583333,1.0583333 V 3.96875 L 1.7197917,3.3734375 2.1166667,4.4317708 2.6458333,4.2333333 2.2489583,3.175 H 3.175 Z"
     id="path26" />
  <text
     xml:space="preserve"
     style="font-style:normal;font-variant:normal;font-weight:normal;font-stretch:normal;font-size:3.175px;font-family:'MesloLGS NF';-inkscape-font-specification:'MesloLGS NF';text-align:start;writing-mode:lr-tb;direction:ltr;text-anchor:start;white-space:pre;inline-size:1.97642;fill:#000000;fill-opacity:1;stroke-width:0.264583"
     x="3.4494472"
     y="1.5902536"
     id="text26"
     transform="matrix(0.78568844,0,0,0.78596492,1.8060851,5.6292832)"><tspan
       x="3.4494472"
       y="1.5902536"
       id="tspan1">?</tspan></text>
  <path
     style="fill:#000000;fill-opacity:1;stroke-width:0.264583"
     id="path27"
     d="m 3.9705161,3.5555216 0,0.2037913 0,0.2037913 L 3.7940276,3.8612085 3.6175392,3.7593129 3.7940276,3.6574172 Z"
     transform="matrix(3.8948018,0,0,3.8949159,-11.840641,-6.9692908)" />
  <path
     style="fill:#000000;fill-opacity:1;stroke-width:0.264583"
     id="path27-6"
     d="m 3.9705161,3.5555216 0,0.2037913 0,0.2037913 L 3.7940276,3.8612085 3.6175392,3.7593129 3.7940276,3.6574172 Z"
     transform="matrix(-3.8948017,0,0,3.8949159,22.291681,-6.9692908)" />
  <rect
     style="fill:#000000;fill-opacity:1;stroke-width:0.702047"
     id="rect27"
     width="0.26458332"
     height="2.3812499"
     x="1.984375"
     y="6.0854168" />
  <rect
     style="fill:#000000;fill-opacity:1;stroke-width:0.702043"
     id="rect27-3"
     width="0.26458332"
     height="2.3812499"
     x="8.2020836"
     y="6.0854168" />
  <rect
     style="fill:#000000;fill-opacity:1;stroke-width:0.332395"
     id="rect28"
     width="3.7041667"
     height="0.52916664"
     x="-7.0114579"
     y="7.4083333"
     transform="scale(-1,1)" />
  <rect
     style="fill:#000000;fill-opacity:1;stroke-width:0.444385"
     id="rect29"
     width="1.5875"
     height="0.26458332"
     x="2.5135417"
     y="6.0854168" />
  <rect
     style="fill:#000000;fill-opacity:1;stroke-width:0.444385"
     id="rect29-5"
     width="1.5875"
     height="0.26458332"
     x="6.3499999"
     y="6.0854168" />
</svg>
