<?xml version="1.0" encoding="UTF-8" standalone="no"?>
<!-- Created with Inkscape (http://www.inkscape.org/) -->

<svg
   width="31.999998"
   height="31.999998"
   viewBox="0 0 8.4666661 8.4666661"
   version="1.1"
   id="svg1"
   xmlns="http://www.w3.org/2000/svg"
   xmlns:svg="http://www.w3.org/2000/svg">
  <defs
     id="defs1" />
  <path
     style="fill:#000000;fill-opacity:1;stroke-width:0.264583"
     d="M 1.0583333,1.0583333 V 3.96875 L 1.7197917,3.3734375 2.1166667,4.4317708 2.6458333,4.2333333 2.2489583,3.175 H 3.175 Z"
     id="path26" />
  <path
     id="rect30-4"
     style="fill:#000000;fill-opacity:1;stroke-width:0.334674"
     d="M 5.2916666,3.7041666 V 4.2395345 A 1.5875,1.5875 0 0 0 3.9894205,5.55625 H 3.4395833 V 6.0854166 H 3.997172 a 1.5875,1.5875 0 0 0 1.2944946,1.280542 V 7.9374999 H 5.8208333 V 7.3675089 A 1.5875,1.5875 0 0 0 7.1179117,6.0854166 H 7.6729166 V 5.55625 H 7.1230794 A 1.5875,1.5875 0 0 0 5.8208333,4.2395345 V 3.7041666 Z M 5.55625,4.7625 A 1.0583333,1.0583333 0 0 1 6.6145833,5.8208333 1.0583333,1.0583333 0 0 1 5.55625,6.8791666 1.0583333,1.0583333 0 0 1 4.4979166,5.8208333 1.0583333,1.0583333 0 0 1 5.55625,4.7625 Z" />
  <circle
     style="fill:#000000;fill-opacity:1;stroke-width:0.0881946"
     id="path30-5-6"
     cx="5.5562496"
     cy="5.8208332"
     r="0.52916664" />
</svg>
