<?xml version="1.0" encoding="UTF-8" standalone="no"?>
<!-- Created with Inkscape (http://www.inkscape.org/) -->

<svg
   width="31.999998"
   height="31.999998"
   viewBox="0 0 8.4666661 8.4666661"
   version="1.1"
   id="svg1"
   xml:space="preserve"
   xmlns="http://www.w3.org/2000/svg"
   xmlns:svg="http://www.w3.org/2000/svg"><defs
     id="defs1" /><text
     xml:space="preserve"
     style="font-style:normal;font-variant:normal;font-weight:normal;font-stretch:normal;font-size:3.175px;font-family:'MesloLGS NF';-inkscape-font-specification:'MesloLGS NF';text-align:start;writing-mode:lr-tb;direction:ltr;text-anchor:start;white-space:pre;inline-size:1.97642;fill:#000000;fill-opacity:1;stroke-width:0.264583"
     x="3.4494472"
     y="1.5902536"
     id="text26"
     transform="matrix(0.78568844,0,0,0.78596492,1.4965285,4.7264784)"><tspan
       x="3.4494472"
       y="1.5902536"
       id="tspan2">?</tspan></text><path
     style="fill:#000000;fill-opacity:1;stroke-width:1.03051"
     id="path27"
     d="M 5.6466128,3.3813404 5.0853469,2.8200744 4.5240809,2.2588084 5.2907705,2.053385 6.0574596,1.8479616 5.8520365,2.614651 Z" /><path
     style="fill:#000000;fill-opacity:1;stroke-width:1.03051"
     id="path27-6"
     d="M 3.3813436,5.6466106 2.8200776,5.0853447 2.2588117,4.5240787 2.0533883,5.2907683 1.8479649,6.0574574 2.6146542,5.8520343 Z" /><rect
     style="fill:#000000;fill-opacity:1;stroke-width:0.702047"
     id="rect27"
     width="0.26458332"
     height="2.3812499"
     x="-3.2411463"
     y="-7.1774774"
     transform="rotate(135)" /><rect
     style="fill:#000000;fill-opacity:1;stroke-width:0.702043"
     id="rect27-3"
     width="0.26458332"
     height="2.3812499"
     x="2.9765632"
     y="-7.1774774"
     transform="rotate(135)" /><rect
     style="fill:#000000;fill-opacity:1;stroke-width:0.332395"
     id="rect28"
     width="3.7041667"
     height="0.52916664"
     x="-1.7859368"
     y="-5.8545613"
     transform="matrix(0.70710678,-0.70710678,-0.70710678,-0.70710678,0,0)" /><rect
     style="fill:#000000;fill-opacity:1;stroke-width:0.444385"
     id="rect29"
     width="1.5875"
     height="0.26458332"
     x="-2.7119801"
     y="-7.1774774"
     transform="rotate(135)" /><rect
     style="fill:#000000;fill-opacity:1;stroke-width:0.444385"
     id="rect29-5"
     width="1.5875"
     height="0.26458332"
     x="1.1244779"
     y="-7.1774774"
     transform="rotate(135)" /></svg>
