<?xml version="1.0" encoding="UTF-8" standalone="no"?>
<!-- Created with Inkscape (http://www.inkscape.org/) -->

<svg
   width="31.999998"
   height="31.999998"
   viewBox="0 0 8.4666661 8.4666661"
   version="1.1"
   id="svg1"
   xml:space="preserve"
   xmlns="http://www.w3.org/2000/svg"
   xmlns:svg="http://www.w3.org/2000/svg"><defs
     id="defs1" /><text
     xml:space="preserve"
     style="font-style:normal;font-variant:normal;font-weight:normal;font-stretch:normal;font-size:3.175px;font-family:'MesloLGS NF';-inkscape-font-specification:'MesloLGS NF';text-align:start;writing-mode:lr-tb;direction:ltr;text-anchor:start;white-space:pre;inline-size:1.97642;fill:#000000;fill-opacity:1;stroke-width:0.264583"
     x="3.4494472"
     y="1.5902536"
     id="text26"
     transform="matrix(0.78568844,0,0,0.78596492,1.6505101,3.8962623)"><tspan
       x="3.4494472"
       y="1.5902536"
       id="tspan2">?</tspan></text><path
     style="fill:#000000;fill-opacity:1;stroke-width:1.03051"
     id="path27"
     d="m 4.4217172,2.6315438 h -0.79375 -0.79375 L 3.2310924,1.944156 3.6279672,1.2567687 4.0248424,1.944156 Z" /><path
     style="fill:#000000;fill-opacity:1;stroke-width:1.03051"
     id="path27-6"
     d="m 4.4217172,5.8351192 h -0.79375 -0.79375 L 3.2310924,6.522507 3.6279672,7.2098941 4.0248424,6.522507 Z" /><rect
     style="fill:#000000;fill-opacity:1;stroke-width:0.702047"
     id="rect27"
     width="0.26458332"
     height="2.3812499"
     x="0.9921875"
     y="-5.2154665"
     transform="rotate(90)" /><rect
     style="fill:#000000;fill-opacity:1;stroke-width:0.702043"
     id="rect27-3"
     width="0.26458332"
     height="2.3812499"
     x="7.209897"
     y="-5.2154665"
     transform="rotate(90)" /><rect
     style="fill:#000000;fill-opacity:1;stroke-width:0.332395"
     id="rect28"
     width="3.7041667"
     height="0.52916664"
     x="-6.0192709"
     y="-3.89255"
     transform="matrix(0,-1,-1,0,0,0)" /><rect
     style="fill:#000000;fill-opacity:1;stroke-width:0.405666"
     id="rect29"
     width="1.3229166"
     height="0.26458332"
     x="1.5213542"
     y="-5.2154665"
     transform="rotate(90)" /><rect
     style="fill:#000000;fill-opacity:1;stroke-width:0.405666"
     id="rect29-5"
     width="1.3229166"
     height="0.26458332"
     x="5.6223955"
     y="-5.2154665"
     transform="rotate(90)" /></svg>
