<?xml version="1.0" encoding="UTF-8" standalone="no"?>
<!-- Created with Inkscape (http://www.inkscape.org/) -->

<svg
   width="31.999998"
   height="31.999998"
   viewBox="0 0 8.4666661 8.4666661"
   version="1.1"
   id="svg1"
   xml:space="preserve"
   xmlns="http://www.w3.org/2000/svg"
   xmlns:svg="http://www.w3.org/2000/svg"><defs
     id="defs1" /><g
     id="g1"
     transform="translate(-1.2920022,-1.5061755)"><path
       id="rect30-4"
       style="fill:#000000;fill-opacity:1;stroke-width:0.334674"
       d="M 5.2607522,3.6228422 V 4.1582101 A 1.5875,1.5875 0 0 0 3.9585061,5.4749256 H 3.4086689 v 0.5291666 h 0.5575887 a 1.5875,1.5875 0 0 0 1.2944946,1.280542 V 7.8561755 H 5.7899189 V 7.2861845 A 1.5875,1.5875 0 0 0 7.0869973,6.0040922 H 7.6420022 V 5.4749256 H 7.092165 A 1.5875,1.5875 0 0 0 5.7899189,4.1582101 V 3.6228422 Z M 5.5253356,4.6811756 A 1.0583333,1.0583333 0 0 1 6.5836689,5.7395089 1.0583333,1.0583333 0 0 1 5.5253356,6.7978422 1.0583333,1.0583333 0 0 1 4.4670022,5.7395089 1.0583333,1.0583333 0 0 1 5.5253356,4.6811756 Z" /><circle
       style="fill:#000000;fill-opacity:1;stroke-width:0.0881946"
       id="path30-5-6"
       cx="5.5253353"
       cy="5.7395086"
       r="0.52916664" /></g></svg>
