<?xml version="1.0" encoding="UTF-8" standalone="no"?>
<!-- Created with Inkscape (http://www.inkscape.org/) -->

<svg
   width="31.999998"
   height="31.999998"
   viewBox="0 0 8.4666661 8.4666661"
   version="1.1"
   id="svg1"
   xmlns="http://www.w3.org/2000/svg"
   xmlns:svg="http://www.w3.org/2000/svg">
  <defs
     id="defs1" />
  <g
     id="layer1">
    <g
       id="g38"
       transform="matrix(0.77749596,0,0,0.77749596,0.66627356,1.0736923)">
      <g
         id="g37">
        <g
           id="g36"
           transform="rotate(51.876465,4.7560014,4.510858)">
          <path
             id="rect34"
             style="stroke-width:0.238415"
             d="m 3.7041666,0.52916664 c 0,-0.4409722 1.0583333,-0.4409722 1.0583333,0 0,0.53399646 0,2.11666656 0,2.11666656 H 3.7041666 c 0,0 0,-1.5693095 0,-2.11666656 z" />
          <rect
             style="fill:#000000;fill-opacity:1;stroke-width:0.159933"
             id="rect35"
             width="2.1166666"
             height="0.52916664"
             x="3.175"
             y="2.778125"
             ry="0.26458332" />
          <path
             id="rect36"
             style="stroke-width:0.207737"
             d="m 3.8364583,3.4395833 h 0.79375 v 3.5718751 c 0,0 -0.1186555,0.2976564 -0.1984375,0.5953127 -0.079782,0.2976561 -0.1206892,0.5953122 -0.1984375,0.5953122 -0.077748,0 -0.1186558,-0.2976561 -0.1984375,-0.5953122 C 3.9551142,7.3091148 3.8364583,7.0114584 3.8364583,7.0114584 Z" />
        </g>
      </g>
      <path
         style="fill:#000000;fill-opacity:1;stroke-width:0.264583"
         d="m 1.5233013,6.5013878 c 0,0 -0.7614855,1.1459104 0,1.1459104 0.7614855,0 0,-1.1459104 0,-1.1459104 z"
         id="path36" />
    </g>
  </g>
</svg>
