<?xml version="1.0" encoding="UTF-8" standalone="no"?>
<!-- Created with Inkscape (http://www.inkscape.org/) -->

<svg
   width="31.999998"
   height="31.999998"
   viewBox="0 0 8.4666661 8.4666661"
   version="1.1"
   id="svg1"
   xml:space="preserve"
   xmlns="http://www.w3.org/2000/svg"
   xmlns:svg="http://www.w3.org/2000/svg"><defs
     id="defs1" /><path
     id="path2"
     style="fill:#000000;stroke-width:0.218092"
     d="m 2.0985215,2.0985214 a 1.7447363,1.7447363 0 0 0 0,2.4674298 1.7447363,1.7447363 0 0 0 2.1174355,0.2668631 L 6.2623092,6.8791666 6.8791667,6.2623092 4.8328144,4.2159569 a 1.7447363,1.7447363 0 0 0 -0.2668631,-2.1174354 1.7447363,1.7447363 0 0 0 -2.4674298,-10e-8 z m 0.3084287,0.3084287 a 1.3085522,1.3085522 0 0 1 1.8505723,10e-8 1.3085522,1.3085522 0 0 1 0,1.8505722 1.3085522,1.3085522 0 0 1 -1.8505723,1e-7 1.3085522,1.3085522 0 0 1 0,-1.8505724 z" /></svg>
