<?xml version="1.0" encoding="UTF-8" standalone="no"?>
<!-- Created with Inkscape (http://www.inkscape.org/) -->

<svg
   width="31.999998"
   height="31.999998"
   viewBox="0 0 8.4666661 8.4666661"
   version="1.1"
   id="svg1"
   xmlns="http://www.w3.org/2000/svg"
   xmlns:svg="http://www.w3.org/2000/svg">
  <defs
     id="defs1" />
  <path
     id="path22"
     style="fill:#000000;fill-opacity:1;stroke-width:0.634244"
     d="M 4.2333333,1.5875 A 2.6458333,2.6458333 0 0 0 1.5875,4.2333333 2.6458333,2.6458333 0 0 0 4.2333333,6.8791666 2.6458333,2.6458333 0 0 0 6.8791666,4.2333333 2.6458333,2.6458333 0 0 0 4.2333333,1.5875 Z M 4.0478149,2.1957316 a 0.79374999,2.1166666 0 0 1 0.361735,0.2387451 l 0.093018,-0.093018 0.090951,0.3389974 0.090434,0.3389974 -0.3389974,-0.09095 -0.3389974,-0.09095 0.096118,-0.096118 a 0.39687499,1.5875 0 0 0 -0.05426,-0.016536 0.39687499,1.5875 0 0 0 -0.396875,1.5874999 0.39687499,1.5875 0 0 0 0.396875,1.5875 0.39687499,1.5875 0 0 0 0.054777,-0.01602 L 4.005957,5.7872436 4.3449544,5.6962931 4.6839518,5.6053426 4.593518,5.94434 4.5025675,6.2833374 4.4100667,6.1908365 A 0.79374999,2.1166666 0 0 1 4.0478149,6.4290649 0.79374999,2.1166666 0 0 1 3.2540649,4.3123982 0.79374999,2.1166666 0 0 1 4.0478149,2.1957316 Z M 2.940389,3.8617798 2.8494385,4.2007772 2.7584879,4.5397745 2.6623698,4.4436564 a 1.5875,0.39687499 0 0 0 -0.016536,0.05426 1.5875,0.39687499 0 0 0 0.4376994,0.2728516 1.5874127,4.2331006 3.8942491 0 0 0.045475,0.4025594 2.1166666,0.79374999 0 0 1 -1.0123413,-0.675411 2.1166666,0.79374999 0 0 1 0.2387451,-0.361735 l -0.093018,-0.093018 0.3389974,-0.09095 z m 2.5858886,0 0.3389974,0.090434 0.3389974,0.09095 -0.092501,0.092501 A 2.1166666,0.79374999 0 0 1 6.35,4.4979166 a 2.1166666,0.79374999 0 0 1 -2.1166667,0.79375 2.1166666,0.79374999 0 0 1 -0.3162598,-0.00982 0.79370636,3.1748255 3.8942491 0 1 -0.049093,-0.3984253 1.5875,0.39687499 0 0 0 0.3653524,0.011369 1.5875,0.39687499 0 0 0 1.5875,-0.396875 1.5875,0.39687499 0 0 0 -0.01602,-0.054777 L 5.7081779,4.5397733 5.6172269,4.200776 Z" />
</svg>
