<?xml version="1.0" encoding="UTF-8" standalone="no"?>
<!-- Created with Inkscape (http://www.inkscape.org/) -->

<svg
   width="31.999998"
   height="31.999998"
   viewBox="0 0 8.4666661 8.4666661"
   version="1.1"
   id="svg1"
   xmlns="http://www.w3.org/2000/svg"
   xmlns:svg="http://www.w3.org/2000/svg">
  <defs
     id="defs1" />
  <g
     id="layer1">
    <path
       id="path1"
       style="fill:#000000;stroke-width:0.0234988"
       d="M 3.7836763,1.5875 V 2.0434225 A 2.2490885,2.2490665 0 0 0 1.984375,4.2413992 2.2490885,2.2490665 0 0 0 3.0000873,6.120365 L 3.1971582,5.4851325 A 1.6193439,1.619328 0 0 1 2.6141278,4.2413992 1.6193439,1.619328 0 0 1 3.7836763,2.6947868 V 3.1456884 L 4.4583846,2.7561529 5.1330924,2.3666174 4.4583846,1.9770355 Z M 5.3597309,2.2953025 5.1646592,2.9241194 a 1.6193439,1.619328 0 0 1 0.688144,1.3172799 1.6193439,1.619328 0 0 1 -1.2595048,1.5728326 v -0.4933 L 3.91859,5.7105138 3.2438806,6.1000491 3.91859,6.4895847 4.5932984,6.8791666 V 6.4609473 A 2.2490885,2.2490665 0 0 0 6.4825562,4.2413992 2.2490885,2.2490665 0 0 0 5.3597309,2.2953025 Z" />
  </g>
</svg>
