<?xml version="1.0" encoding="UTF-8" standalone="no"?>
<!-- Created with Inkscape (http://www.inkscape.org/) -->

<svg
   width="31.999998"
   height="31.999998"
   viewBox="0 0 8.4666661 8.4666661"
   version="1.1"
   id="svg1"
   xml:space="preserve"
   xmlns="http://www.w3.org/2000/svg"
   xmlns:svg="http://www.w3.org/2000/svg"><defs
     id="defs1" /><path
     id="path5"
     style="fill:#000000;fill-opacity:1;stroke-width:0.264583"
     d="M 4.2328165,1.6288411 C 3.74001,1.6289856 3.989544,1.915147 3.8922689,2.146639 A 2.1166666,2.1166666 0 0 0 3.282487,2.34611 C 3.0665433,2.2167041 3.10138,1.8362567 2.7021606,2.1264852 2.3020531,2.4173598 2.6769385,2.5020737 2.732133,2.7486694 A 2.1166666,2.1166666 0 0 0 2.3564453,3.2654337 C 2.1048268,3.2893918 1.9092252,2.9586833 1.7564819,3.429248 1.6045574,3.8972908 1.952731,3.7495335 2.1430216,3.9124227 A 2.1166666,2.1166666 0 0 0 2.1166666,4.240568 2.1166666,2.1166666 0 0 0 2.1425046,4.5557942 C 1.952187,4.7180329 1.6044306,4.5714702 1.7564816,5.0389689 1.9093939,5.5091154 2.1050655,5.1794841 2.356445,5.2027832 a 2.1166666,2.1166666 0 0 0 0.3767212,0.5162475 c -0.05504,0.2466378 -0.4302576,0.3310227 -0.029972,0.6216675 0.399785,0.2902817 0.36478,-0.09098 0.5813598,-0.2201416 a 2.1166666,2.1166666 0 0 0 0.6087484,0.1989543 c 0.09745,0.2314406 -0.1522827,0.5184589 0.3405477,0.5183146 0.4928065,-1.45e-4 0.2432725,-0.286306 0.3405477,-0.5177979 A 2.1166666,2.1166666 0 0 0 5.1841796,6.1205566 C 5.4001233,6.2499624 5.3652866,6.6304098 5.764506,6.3401814 6.1646135,6.0493068 5.7897281,5.9645929 5.7345336,5.7179972 A 2.1166666,2.1166666 0 0 0 6.1102213,5.2012329 C 6.3618398,5.1772748 6.5574414,5.5079834 6.7101847,5.0374186 6.8621092,4.5693759 6.5139356,4.7171333 6.323645,4.5542439 A 2.1166666,2.1166666 0 0 0 6.35,4.2260986 2.1166666,2.1166666 0 0 0 6.3251953,3.9098388 C 6.515753,3.7491164 6.8619397,3.8942864 6.7101847,3.4276977 6.5581272,2.9601792 6.3637138,3.2831552 6.1143554,3.2638834 A 2.1166666,2.1166666 0 0 0 5.7355672,2.742985 C 5.794507,2.5001955 6.161038,2.4146387 5.7634725,2.1259684 5.3656952,1.8371444 5.3982047,2.2130285 5.1852132,2.344043 A 2.1166666,2.1166666 0 0 0 4.5723307,2.1445719 C 4.4778235,1.913589 4.7238032,1.6286972 4.2328165,1.6288411 Z m 5.168e-4,1.2815755 A 1.3229166,1.3229166 0 0 1 5.55625,4.2333333 1.3229166,1.3229166 0 0 1 4.2333333,5.55625 1.3229166,1.3229166 0 0 1 2.9104166,4.2333333 1.3229166,1.3229166 0 0 1 4.2333333,2.9104166 Z" /></svg>
