<?xml version="1.0" encoding="UTF-8" standalone="no"?>
<!-- Created with Inkscape (http://www.inkscape.org/) -->

<svg
   width="31.999998"
   height="31.999998"
   viewBox="0 0 8.4666661 8.4666661"
   version="1.1"
   id="svg1"
   xmlns="http://www.w3.org/2000/svg"
   xmlns:svg="http://www.w3.org/2000/svg">
  <defs
     id="defs1" />
  <path
     style="fill:#000000;stroke-width:0.264583"
     id="path1"
     d="m 2.5510588,2.3380175 0.596451,-0.3443612 0.596451,-0.3443612 10e-8,0.6887224 0,0.6887223 -0.5964511,-0.3443612 z"
     transform="matrix(0.96041364,0,0,0.96041364,-0.86257165,1.9878695)" />
  <path
     style="fill:#000000;stroke-width:0.264583"
     id="path1-5"
     d="m 2.5510588,2.3380175 0.596451,-0.3443612 0.596451,-0.3443612 10e-8,0.6887224 0,0.6887223 -0.5964511,-0.3443612 z"
     transform="matrix(0,0.96041364,-0.96041364,0,6.4787971,-0.86257165)" />
  <path
     style="fill:#000000;stroke-width:0.264583"
     id="path1-2"
     d="m 2.5510588,2.3380175 0.596451,-0.3443612 0.596451,-0.3443612 10e-8,0.6887224 0,0.6887223 -0.5964511,-0.3443612 z"
     transform="matrix(-0.96041364,0,0,0.96041364,9.3292719,1.9878695)" />
  <path
     style="fill:#000000;stroke-width:0.264583"
     id="path1-7"
     d="m 2.5510588,2.3380175 0.596451,-0.3443612 0.596451,-0.3443612 10e-8,0.6887224 0,0.6887223 -0.5964511,-0.3443612 z"
     transform="matrix(0,-0.96041364,0.96041364,0,1.9878695,9.3292719)" />
  <rect
     style="fill:#000000;stroke-width:0.264583"
     id="rect1"
     width="3.175"
     height="0.52916664"
     x="2.6531141"
     y="3.96875" />
  <rect
     style="fill:#000000;stroke-width:0.264583"
     id="rect1-6"
     width="3.175"
     height="0.52916664"
     x="2.6458333"
     y="-4.4979167"
     transform="rotate(90)" />
</svg>
